<svg xmlns="http://www.w3.org/2000/svg" viewBox="0 0 64 64" role="img" aria-label="Scribe">
  <defs>
    <linearGradient id="scribeBg" x1="0%" y1="0%" x2="100%" y2="100%">
      <stop offset="0%" stop-color="#1F6D64" />
      <stop offset="100%" stop-color="#0E3A36" />
    </linearGradient>
  </defs>
  <rect x="2" y="2" width="60" height="60" rx="14" fill="url(#scribeBg)" />
  <path
    d="M44 20c-2.8-2.8-6.5-4.2-11.1-4.2-4.5 0-8 1-10.4 3.1-2.4 2.1-3.6 4.8-3.6 8.2 0 2.7.8 4.9 2.3 6.4 1.6 1.5 4.1 2.7 7.7 3.5l6.5 1.4c1.7.4 2.9.8 3.5 1.4.6.6.9 1.3.9 2.2 0 1.3-.5 2.3-1.6 3-1 .7-2.7 1.1-5 1.1-4 0-7.3-1.4-10-4.2l-5 5c3.5 4.1 8.4 6.2 14.8 6.2 4.8 0 8.7-1.1 11.4-3.3 2.8-2.2 4.2-5.2 4.2-9.1 0-2.8-.8-5-2.3-6.6-1.5-1.6-3.9-2.7-7-3.4l-6.8-1.5c-1.9-.4-3.2-.9-3.8-1.4-.6-.5-.9-1.2-.9-2.1 0-1 .5-1.9 1.4-2.5.9-.7 2.4-1 4.4-1 3.5 0 6.4 1.2 8.7 3.5z"
    fill="#E8FFF8"
  />
</svg>
